STARTFONT 2.1
FONT -HP-HP User-Medium-R-Normal-Serif-18-180-72-72-M-120-HP-Roman8
SIZE 18 72 72
FONTBOUNDINGBOX 12 23 0 -5

STARTPROPERTIES 27
COPYRIGHT "(c) Copyright 1994, Hewlett Packard Company"
NOTICE "Created by the User Interaction Design Group, July 1994."
NOTICE "Hewlett Packard Company, 3000 Hanover St., Palo Alto, CA 94303, USA"
FONTNAME_REGISTRY ""
FOUNDRY "HP"
FAMILY_NAME "HP User"
WEIGHT_NAME "Medium"
SLANT "R"
ADD_STYLE_NAME "Serif"
SETWIDTH_NAME "Normal"
PIXEL_SIZE 18
POINT_SIZE 180
RESOLUTION_X 72
RESOLUTION_Y 72
SPACING "M"
AVERAGE_WIDTH 120
CHARSET_REGISTRY "HP"
CHARSET_ENCODING "Roman8"
CHARSET_COLLECTIONS "HP-Roman8"
FULL_NAME "HP User12x23"
CAP_HEIGHT 14
X_HEIGHT 9
WEIGHT 10
QUAD_WIDTH 12
DEFAULT_CHAR 32
FONT_DESCENT 5
FONT_ASCENT 18
ENDPROPERTIES

CHARS 222

STARTCHAR Null
ENCODING 0
SWIDTH 666 0
DWIDTH 12 0
BBX 12 23 0 -5
BITMAP
0000
0000
4800
6800
6800
5800
5800
4800
0000
0900
0900
0900
0900
0900
0600
0000
0100
0100
0100
0100
0100
01E0
0000
ENDCHAR

STARTCHAR StartOfHeading
ENCODING 1
SWIDTH 666 0
DWIDTH 12 0
BBX 12 23 0 -5
BITMAP
0000
3000
4800
4000
3000
0800
4800
3000
0000
0600
0900
0900
0900
0900
0600
0000
0120
0120
01E0
0120
0120
0120
0000
ENDCHAR

STARTCHAR StartOfText
ENCODING 2
SWIDTH 666 0
DWIDTH 12 0
BBX 12 23 0 -5
BITMAP
0000
3800
4400
4000
3800
0400
4400
3800
0000
1F00
0400
0400
0400
0400
0400
0220
0220
0140
0080
0140
0220
0220
0000
ENDCHAR

STARTCHAR EndOfText
ENCODING 3
SWIDTH 666 0
DWIDTH 12 0
BBX 12 23 0 -5
BITMAP
0000
0000
7800
4000
7000
4000
4000
7800
0000
0F80
0200
0200
0200
0200
0200
0000
0220
0140
0080
0140
0220
0220
0000
ENDCHAR

STARTCHAR EndOfTransmit
ENCODING 4
SWIDTH 666 0
DWIDTH 12 0
BBX 12 23 0 -5
BITMAP
0000
0000
7800
4000
7000
4000
4000
7800
0000
0E00
1100
1100
1100
1100
0E00
0000
01F0
0040
0040
0040
0040
0040
0000
ENDCHAR

STARTCHAR Enquiry
ENCODING 5
SWIDTH 666 0
DWIDTH 12 0
BBX 12 23 0 -5
BITMAP
0000
0000
7800
4000
7000
4000
4000
7800
0000
0900
0D00
0D00
0B00
0B00
0900
0000
01C0
0220
0220
0220
02A0
01C0
0060
ENDCHAR

STARTCHAR Acknowledge
ENCODING 6
SWIDTH 666 0
DWIDTH 12 0
BBX 12 23 0 -5
BITMAP
0000
0000
3000
4800
4800
7800
4800
4800
0000
0600
0900
0800
0800
0900
0600
0000
0120
0140
0180
0140
0120
0120
0000
ENDCHAR

STARTCHAR Bell
ENCODING 7
SWIDTH 666 0
DWIDTH 12 0
BBX 12 23 0 -5
BITMAP
0000
0080
0100
0700
0880
1040
1040
1040
1040
2020
2020
2020
2020
2020
2020
4010
4010
7FF0
0180
01C0
0080
0000
0000
ENDCHAR

STARTCHAR BackSpace
ENCODING 8
SWIDTH 666 0
DWIDTH 12 0
BBX 12 23 0 -5
BITMAP
0000
0000
7800
2400
2400
3800
2400
2400
2400
7800
0000
01C0
0220
0200
01C0
0020
0020
0220
01C0
0000
0000
0000
0000
ENDCHAR

STARTCHAR HorizontalTab
ENCODING 9
SWIDTH 666 0
DWIDTH 12 0
BBX 12 23 0 -5
BITMAP
0000
0000
4400
4400
4400
7C00
4400
4400
4400
4400
0000
03E0
0080
0080
0080
0080
0080
0080
0080
0000
0000
0000
0000
ENDCHAR

STARTCHAR LineFeed
ENCODING 10
SWIDTH 666 0
DWIDTH 12 0
BBX 12 23 0 -5
BITMAP
0000
0000
4000
4000
4000
4000
4000
4000
4000
7C00
0000
03E0
0200
0200
03C0
0200
0200
0200
0200
0000
0000
0000
0000
ENDCHAR

STARTCHAR VerticalTab
ENCODING 11
SWIDTH 666 0
DWIDTH 12 0
BBX 12 23 0 -5
BITMAP
0000
0000
4400
4400
4400
2800
2800
2800
1000
1000
1000
03E0
0080
0080
0080
0080
0080
0080
0080
0000
0000
0000
0000
ENDCHAR

STARTCHAR FormFeed
ENCODING 12
SWIDTH 666 0
DWIDTH 12 0
BBX 12 23 0 -5
BITMAP
0000
0000
7C00
4000
4000
7800
4000
4000
4000
4000
0000
03E0
0200
0200
03C0
0200
0200
0200
0200
0000
0000
0000
0000
ENDCHAR

STARTCHAR CarriageReturn
ENCODING 13
SWIDTH 666 0
DWIDTH 12 0
BBX 12 23 0 -5
BITMAP
0000
0000
3800
4400
4000
4000
4000
4000
4400
3800
0000
03C0
0220
0220
0220
03C0
0240
0220
0220
0000
0000
0000
0000
ENDCHAR

STARTCHAR ShiftOut
ENCODING 14
SWIDTH 666 0
DWIDTH 12 0
BBX 12 23 0 -5
BITMAP
0000
3800
4400
4000
4000
3800
0400
0400
4400
3800
0000
01C0
0220
0220
0220
0220
0220
0220
01C0
0000
0000
0000
0000
ENDCHAR

STARTCHAR ShiftIn
ENCODING 15
SWIDTH 666 0
DWIDTH 12 0
BBX 12 23 0 -5
BITMAP
0000
3800
4400
4000
4000
3800
0400
0400
4400
3800
0000
01C0
0080
0080
0080
0080
0080
0080
01C0
0000
0000
0000
0000
ENDCHAR

STARTCHAR DataLinkEscape
ENCODING 16
SWIDTH 666 0
DWIDTH 12 0
BBX 12 23 0 -5
BITMAP
0000
0000
7800
2400
2400
2400
2400
7800
0000
0800
0800
0800
0800
0800
0F00
0000
01E0
0100
01C0
0100
0100
01E0
0000
ENDCHAR

STARTCHAR DevCtrl1orXon
ENCODING 17
SWIDTH 666 0
DWIDTH 12 0
BBX 12 23 0 -5
BITMAP
0000
0000
7800
2400
2400
2400
2400
7800
0000
0600
0900
0800
0800
0900
0600
0000
0040
00C0
0040
0040
0040
00E0
0000
ENDCHAR

STARTCHAR DeviceControl2
ENCODING 18
SWIDTH 666 0
DWIDTH 12 0
BBX 12 23 0 -5
BITMAP
0000
0000
7800
2400
2400
2400
2400
7800
0000
0600
0900
0800
0800
0900
0600
0000
00C0
0120
0020
0040
0080
01E0
0000
ENDCHAR

STARTCHAR DevCtrl3orXoff
ENCODING 19
SWIDTH 666 0
DWIDTH 12 0
BBX 12 23 0 -5
BITMAP
0000
0000
7800
2400
2400
2400
2400
7800
0000
0600
0900
0800
0800
0900
0600
0000
00C0
0120
0040
0020
0120
00C0
0000
ENDCHAR

STARTCHAR DeviceControl4
ENCODING 20
SWIDTH 666 0
DWIDTH 12 0
BBX 12 23 0 -5
BITMAP
0000
0000
7800
2400
2400
2400
2400
7800
0000
0600
0900
0800
0800
0900
0600
0000
0040
00C0
0140
01E0
0040
0040
0000
ENDCHAR

STARTCHAR NegAcknowledge
ENCODING 21
SWIDTH 666 0
DWIDTH 12 0
BBX 12 23 0 -5
BITMAP
0000
0000
4800
6800
6800
5800
5800
4800
0000
0600
0900
0900
0F00
0900
0900
0000
0120
0140
0180
0140
0120
0120
0000
ENDCHAR

STARTCHAR SynchronusIdle
ENCODING 22
SWIDTH 666 0
DWIDTH 12 0
BBX 12 23 0 -5
BITMAP
0000
3000
4800
4000
3000
0800
4800
3000
0000
0880
0500
0200
0200
0200
0200
0000
0120
01A0
01A0
0160
0160
0120
0000
ENDCHAR

STARTCHAR EndTransmit
ENCODING 23
SWIDTH 666 0
DWIDTH 12 0
BBX 12 23 0 -5
BITMAP
0000
0000
7800
4000
7000
4000
4000
7800
0000
1F00
0400
0400
0400
0400
0400
0000
03C0
0120
01C0
0120
0120
03C0
0000
ENDCHAR

STARTCHAR Cancel
ENCODING 24
SWIDTH 666 0
DWIDTH 12 0
BBX 12 23 0 -5
BITMAP
0000
0000
3000
4800
4000
4000
4800
3000
0000
0600
0900
0900
0F00
0900
0900
0000
0120
01A0
01A0
0160
0160
0120
0000
ENDCHAR

STARTCHAR EndOfMedium
ENCODING 25
SWIDTH 666 0
DWIDTH 12 0
BBX 12 23 0 -5
BITMAP
0000
0000
7C00
4000
4000
7800
4000
4000
4000
7C00
0000
0220
0360
0360
02A0
02A0
0220
0220
0220
0000
0000
0000
0000
ENDCHAR

STARTCHAR Substitute
ENCODING 26
SWIDTH 666 0
DWIDTH 12 0
BBX 12 23 0 -5
BITMAP
0000
3000
4800
4000
3000
0800
4800
3000
0000
0900
0900
0900
0900
0900
0600
0000
03C0
0120
01C0
0120
0120
03C0
0000
ENDCHAR

STARTCHAR Escape
ENCODING 27
SWIDTH 666 0
DWIDTH 12 0
BBX 12 23 0 -5
BITMAP
0000
7800
4000
7000
4000
4000
7800
0000
0600
0900
0800
0600
0100
0900
0600
0000
00C0
0120
0100
0100
0120
00C0
0000
ENDCHAR

STARTCHAR FileSeparator
ENCODING 28
SWIDTH 666 0
DWIDTH 12 0
BBX 12 23 0 -5
BITMAP
0000
0000
7C00
4000
4000
7800
4000
4000
4000
4000
0000
01C0
0220
0200
01C0
0020
0020
0220
01C0
0000
0000
0000
0000
ENDCHAR

STARTCHAR GroupSeparator
ENCODING 29
SWIDTH 666 0
DWIDTH 12 0
BBX 12 23 0 -5
BITMAP
0000
0000
3800
4400
4000
4000
4C00
4400
4400
3800
0000
01C0
0220
0200
01C0
0020
0020
0220
01C0
0000
0000
0000
0000
ENDCHAR

STARTCHAR RecordSeparatr
ENCODING 30
SWIDTH 666 0
DWIDTH 12 0
BBX 12 23 0 -5
BITMAP
0000
0000
7800
4400
4400
4400
7800
4800
4400
4400
0000
01C0
0220
0200
01C0
0020
0020
0220
01C0
0000
0000
0000
0000
ENDCHAR

STARTCHAR UnitSeparator
ENCODING 31
SWIDTH 666 0
DWIDTH 12 0
BBX 12 23 0 -5
BITMAP
0000
0000
4400
4400
4400
4400
4400
4400
4400
3800
0000
01C0
0220
0200
01C0
0020
0020
0220
01C0
0000
0000
0000
0000
ENDCHAR

STARTCHAR PrintableSpace
ENCODING 32
SWIDTH 666 0
DWIDTH 12 0
BBX 12 23 0 -5
BITMAP
0000
0000
0000
0000
0000
0000
0000
0000
0000
0000
0000
0000
0000
0000
0000
0000
0000
0000
0000
0000
0000
0000
0000
ENDCHAR

STARTCHAR Exclamation
ENCODING 33
SWIDTH 666 0
DWIDTH 12 0
BBX 12 23 0 -5
BITMAP
0000
0000
0000
0600
0F00
0F00
0F00
0F00
0F00
0600
0600
0600
0600
0000
0000
0600
0F00
0F00
0600
0000
0000
0000
0000
ENDCHAR

STARTCHAR NeutrlDblQuote
ENCODING 34
SWIDTH 666 0
DWIDTH 12 0
BBX 12 23 0 -5
BITMAP
0000
0000
0000
39C0
39C0
39C0
39C0
1080
1080
1080
0000
0000
0000
0000
0000
0000
0000
0000
0000
0000
0000
0000
0000
ENDCHAR

STARTCHAR NumberSign
ENCODING 35
SWIDTH 666 0
DWIDTH 12 0
BBX 12 23 0 -5
BITMAP
0000
0000
0000
1980
1980
1980
1980
7FE0
7FE0
1980
1980
1980
1980
7FE0
7FE0
1980
1980
1980
1980
0000
0000
0000
0000
ENDCHAR

STARTCHAR DollarSign
ENCODING 36
SWIDTH 666 0
DWIDTH 12 0
BBX 12 23 0 -5
BITMAP
0000
0000
0600
0600
1FC0
30E0
6060
6020
7000
3800
1E00
0780
01C0
00E0
4060
6060
70C0
3F80
0600
0600
0000
0000
0000
ENDCHAR

STARTCHAR PerCentSign
ENCODING 37
SWIDTH 666 0
DWIDTH 12 0
BBX 12 23 0 -5
BITMAP
0000
0000
0000
3C60
6660
66C0
66C0
3D80
0180
0300
0300
0600
0600
0C00
0DE0
1B30
1B30
3330
31E0
0000
0000
0000
0000
ENDCHAR

STARTCHAR Ampersand
ENCODING 38
SWIDTH 666 0
DWIDTH 12 0
BBX 12 23 0 -5
BITMAP
0000
0000
0000
0E00
1B00
3180
3180
3180
1B00
1E00
0C00
1C00
3670
6360
6340
61C0
61C0
3360
1E30
0000
0000
0000
0000
ENDCHAR

STARTCHAR SingleCloseQut
ENCODING 39
SWIDTH 666 0
DWIDTH 12 0
BBX 12 23 0 -5
BITMAP
0000
0000
0600
0F00
0F00
0700
0600
0C00
1800
0000
0000
0000
0000
0000
0000
0000
0000
0000
0000
0000
0000
0000
0000
ENDCHAR

STARTCHAR OpenParen
ENCODING 40
SWIDTH 666 0
DWIDTH 12 0
BBX 12 23 0 -5
BITMAP
0000
0000
00C0
0180
0300
0600
0600
0C00
0C00
0C00
0C00
0C00
0C00
0C00
0C00
0600
0600
0300
0180
00C0
0000
0000
0000
ENDCHAR

STARTCHAR CloseParen
ENCODING 41
SWIDTH 666 0
DWIDTH 12 0
BBX 12 23 0 -5
BITMAP
0000
0000
1800
0C00
0600
0300
0300
0180
0180
0180
0180
0180
0180
0180
0180
0300
0300
0600
0C00
1800
0000
0000
0000
ENDCHAR

STARTCHAR Asterisk
ENCODING 42
SWIDTH 666 0
DWIDTH 12 0
BBX 12 23 0 -5
BITMAP
0000
0000
0000
0000
0000
0000
0600
2640
76E0
3FC0
1F80
0F00
3FC0
76E0
2640
0600
0000
0000
0000
0000
0000
0000
0000
ENDCHAR

STARTCHAR PlusSign
ENCODING 43
SWIDTH 666 0
DWIDTH 12 0
BBX 12 23 0 -5
BITMAP
0000
0000
0000
0000
0000
0000
0600
0600
0600
0600
7FE0
7FE0
0600
0600
0600
0600
0000
0000
0000
0000
0000
0000
0000
ENDCHAR

STARTCHAR Comma
ENCODING 44
SWIDTH 666 0
DWIDTH 12 0
BBX 12 23 0 -5
BITMAP
0000
0000
0000
0000
0000
0000
0000
0000
0000
0000
0000
0000
0000
0000
0600
0F00
0F00
0700
0600
0C00
1800
0000
0000
ENDCHAR

STARTCHAR Hyphen
ENCODING 45
SWIDTH 666 0
DWIDTH 12 0
BBX 12 23 0 -5
BITMAP
0000
0000
0000
0000
0000
0000
0000
0000
0000
0000
7FE0
7FE0
0000
0000
0000
0000
0000
0000
0000
0000
0000
0000
0000
ENDCHAR

STARTCHAR Period
ENCODING 46
SWIDTH 666 0
DWIDTH 12 0
BBX 12 23 0 -5
BITMAP
0000
0000
0000
0000
0000
0000
0000
0000
0000
0000
0000
0000
0000
0000
0600
0F00
0F00
0600
0000
0000
0000
0000
0000
ENDCHAR

STARTCHAR Slash
ENCODING 47
SWIDTH 666 0
DWIDTH 12 0
BBX 12 23 0 -5
BITMAP
0000
0000
0060
0060
00C0
00C0
0180
0180
0300
0300
0600
0600
0C00
0C00
1800
1800
3000
3000
6000
6000
0000
0000
0000
ENDCHAR

STARTCHAR Zero
ENCODING 48
SWIDTH 666 0
DWIDTH 12 0
BBX 12 23 0 -5
BITMAP
0000
0000
0000
0000
0F00
39C0
30C0
6060
6060
6060
6660
6660
6060
6060
6060
30C0
39C0
0F00
0000
0000
0000
0000
0000
ENDCHAR

STARTCHAR One
ENCODING 49
SWIDTH 666 0
DWIDTH 12 0
BBX 12 23 0 -5
BITMAP
0000
0000
0000
0000
0300
0700
0F00
1B00
0300
0300
0300
0300
0300
0300
0300
0300
0300
0300
0000
0000
0000
0000
0000
ENDCHAR

STARTCHAR Two
ENCODING 50
SWIDTH 666 0
DWIDTH 12 0
BBX 12 23 0 -5
BITMAP
0000
0000
0000
0000
0F80
18C0
3060
3060
0060
00C0
0180
0300
0600
0C00
1800
3020
3060
3FE0
0000
0000
0000
0000
0000
ENDCHAR

STARTCHAR Three
ENCODING 51
SWIDTH 666 0
DWIDTH 12 0
BBX 12 23 0 -5
BITMAP
0000
0000
0000
0000
0F80
18C0
3060
3060
0060
00C0
0780
00C0
0060
0060
0060
3060
30C0
1F80
0000
0000
0000
0000
0000
ENDCHAR

STARTCHAR Four
ENCODING 52
SWIDTH 666 0
DWIDTH 12 0
BBX 12 23 0 -5
BITMAP
0000
0000
0000
0000
0300
0300
0600
0600
0C00
0C40
18C0
18C0
30C0
30C0
3FF0
00C0
00C0
00C0
0000
0000
0000
0000
0000
ENDCHAR

STARTCHAR Five
ENCODING 53
SWIDTH 666 0
DWIDTH 12 0
BBX 12 23 0 -5
BITMAP
0000
0000
0000
0000
1FC0
1800
1800
1800
1800
1F80
00C0
0060
0060
0060
0060
0060
30C0
1F80
0000
0000
0000
0000
0000
ENDCHAR

STARTCHAR Six
ENCODING 54
SWIDTH 666 0
DWIDTH 12 0
BBX 12 23 0 -5
BITMAP
0000
0000
0000
0000
01C0
0700
0C00
1800
1800
3000
3780
38C0
3060
3060
3060
3060
18C0
0F80
0000
0000
0000
0000
0000
ENDCHAR

STARTCHAR Seven
ENCODING 55
SWIDTH 666 0
DWIDTH 12 0
BBX 12 23 0 -5
BITMAP
0000
0000
0000
0000
3FE0
3FE0
20C0
00C0
0180
0180
0180
0300
0300
0300
0600
0600
0600
0600
0000
0000
0000
0000
0000
ENDCHAR

STARTCHAR Eight
ENCODING 56
SWIDTH 666 0
DWIDTH 12 0
BBX 12 23 0 -5
BITMAP
0000
0000
0000
0000
0F80
18C0
3060
3060
3060
18C0
0F80
18C0
3060
3060
3060
3060
18C0
0F80
0000
0000
0000
0000
0000
ENDCHAR

STARTCHAR Nine
ENCODING 57
SWIDTH 666 0
DWIDTH 12 0
BBX 12 23 0 -5
BITMAP
0000
0000
0000
0000
0F80
18C0
3060
3060
3060
3060
18E0
0F60
0060
00C0
00C0
0180
0700
1C00
0000
0000
0000
0000
0000
ENDCHAR

STARTCHAR Colon
ENCODING 58
SWIDTH 666 0
DWIDTH 12 0
BBX 12 23 0 -5
BITMAP
0000
0000
0000
0000
0000
0000
0000
0000
0000
0600
0F00
0F00
0600
0000
0600
0F00
0F00
0600
0000
0000
0000
0000
0000
ENDCHAR

STARTCHAR Simicolon
ENCODING 59
SWIDTH 666 0
DWIDTH 12 0
BBX 12 23 0 -5
BITMAP
0000
0000
0000
0000
0000
0000
0000
0000
0000
0600
0F00
0F00
0600
0000
0600
0F00
0F00
0700
0600
0C00
1800
0000
0000
ENDCHAR

STARTCHAR LessThanSign
ENCODING 60
SWIDTH 666 0
DWIDTH 12 0
BBX 12 23 0 -5
BITMAP
0000
0000
0000
0000
0000
0000
0060
01E0
0780
1E00
7800
7800
1E00
0780
01E0
0060
0000
0000
0000
0000
0000
0000
0000
ENDCHAR

STARTCHAR EqualsSign
ENCODING 61
SWIDTH 666 0
DWIDTH 12 0
BBX 12 23 0 -5
BITMAP
0000
0000
0000
0000
0000
0000
0000
0000
7FE0
7FE0
0000
0000
7FE0
7FE0
0000
0000
0000
0000
0000
0000
0000
0000
0000
ENDCHAR

STARTCHAR GreatrThanSign
ENCODING 62
SWIDTH 666 0
DWIDTH 12 0
BBX 12 23 0 -5
BITMAP
0000
0000
0000
0000
0000
0000
6000
7800
1E00
0780
01E0
01E0
0780
1E00
7800
6000
0000
0000
0000
0000
0000
0000
0000
ENDCHAR

STARTCHAR QuestionMark
ENCODING 63
SWIDTH 666 0
DWIDTH 12 0
BBX 12 23 0 -5
BITMAP
0000
0000
0000
0F80
19C0
38E0
38E0
10E0
01C0
0380
0700
0600
0600
0000
0000
0600
0F00
0F00
0600
0000
0000
0000
0000
ENDCHAR

STARTCHAR CommerclAtSign
ENCODING 64
SWIDTH 666 0
DWIDTH 12 0
BBX 12 23 0 -5
BITMAP
0000
0000
0000
0F80
38E0
3060
6030
6030
66B0
6DB0
6DB0
6DB0
6DB0
6DB0
66E0
6000
3000
3860
0FC0
0000
0000
0000
0000
ENDCHAR

STARTCHAR A
ENCODING 65
SWIDTH 666 0
DWIDTH 12 0
BBX 12 23 0 -5
BITMAP
0000
0000
0000
0000
0600
0600
0F00
0B00
0B00
1980
1180
1180
30C0
3FC0
20C0
6060
6060
F0F0
0000
0000
0000
0000
0000
ENDCHAR

STARTCHAR B
ENCODING 66
SWIDTH 666 0
DWIDTH 12 0
BBX 12 23 0 -5
BITMAP
0000
0000
0000
0000
7F00
3180
30C0
30C0
30C0
3180
3F80
30C0
3060
3060
3060
3060
30C0
7F80
0000
0000
0000
0000
0000
ENDCHAR

STARTCHAR C
ENCODING 67
SWIDTH 666 0
DWIDTH 12 0
BBX 12 23 0 -5
BITMAP
0000
0000
0000
0000
0FA0
18E0
3060
3020
6000
6000
6000
6000
6000
6000
3000
3020
1CE0
0780
0000
0000
0000
0000
0000
ENDCHAR

STARTCHAR D
ENCODING 68
SWIDTH 666 0
DWIDTH 12 0
BBX 12 23 0 -5
BITMAP
0000
0000
0000
0000
7F00
31C0
3060
3060
3030
3030
3030
3030
3030
3030
3060
3060
31C0
7F00
0000
0000
0000
0000
0000
ENDCHAR

STARTCHAR E
ENCODING 69
SWIDTH 666 0
DWIDTH 12 0
BBX 12 23 0 -5
BITMAP
0000
0000
0000
0000
7FE0
3060
3020
3020
3100
3100
3F00
3100
3100
3000
3020
3020
3060
7FE0
0000
0000
0000
0000
0000
ENDCHAR

STARTCHAR F
ENCODING 70
SWIDTH 666 0
DWIDTH 12 0
BBX 12 23 0 -5
BITMAP
0000
0000
0000
0000
7FE0
3060
3020
3020
3100
3100
3F00
3100
3100
3000
3000
3000
3000
7C00
0000
0000
0000
0000
0000
ENDCHAR

STARTCHAR G
ENCODING 71
SWIDTH 666 0
DWIDTH 12 0
BBX 12 23 0 -5
BITMAP
0000
0000
0000
0000
0FA0
18E0
3060
3020
6000
6000
6000
61F0
6060
6060
3060
3060
1CE0
0780
0000
0000
0000
0000
0000
ENDCHAR

STARTCHAR H
ENCODING 72
SWIDTH 666 0
DWIDTH 12 0
BBX 12 23 0 -5
BITMAP
0000
0000
0000
0000
78F0
3060
3060
3060
3060
3060
3FE0
3060
3060
3060
3060
3060
3060
78F0
0000
0000
0000
0000
0000
ENDCHAR

STARTCHAR I
ENCODING 73
SWIDTH 666 0
DWIDTH 12 0
BBX 12 23 0 -5
BITMAP
0000
0000
0000
0000
3FC0
0600
0600
0600
0600
0600
0600
0600
0600
0600
0600
0600
0600
3FC0
0000
0000
0000
0000
0000
ENDCHAR

STARTCHAR J
ENCODING 74
SWIDTH 666 0
DWIDTH 12 0
BBX 12 23 0 -5
BITMAP
0000
0000
0000
0000
0FE0
0180
0180
0180
0180
0180
0180
0180
0180
0180
6180
6180
3300
1E00
0000
0000
0000
0000
0000
ENDCHAR

STARTCHAR K
ENCODING 75
SWIDTH 666 0
DWIDTH 12 0
BBX 12 23 0 -5
BITMAP
0000
0000
0000
0000
F1E0
60C0
6180
6300
6600
6C00
7C00
7C00
6E00
6700
6380
61C0
60E0
F1F0
0000
0000
0000
0000
0000
ENDCHAR

STARTCHAR L
ENCODING 76
SWIDTH 666 0
DWIDTH 12 0
BBX 12 23 0 -5
BITMAP
0000
0000
0000
0000
7800
3000
3000
3000
3000
3000
3000
3000
3000
3000
3020
3020
3060
7FE0
0000
0000
0000
0000
0000
ENDCHAR

STARTCHAR M
ENCODING 77
SWIDTH 666 0
DWIDTH 12 0
BBX 12 23 0 -5
BITMAP
0000
0000
0000
0000
7070
3060
38E0
38E0
3DE0
2D60
2F60
2660
2660
2060
2060
2060
2060
70F0
0000
0000
0000
0000
0000
ENDCHAR

STARTCHAR N
ENCODING 78
SWIDTH 666 0
DWIDTH 12 0
BBX 12 23 0 -5
BITMAP
0000
0000
0000
0000
70E0
3840
3840
3C40
2C40
2E40
2640
2740
2340
23C0
21C0
21C0
20C0
70C0
0000
0000
0000
0000
0000
ENDCHAR

STARTCHAR O
ENCODING 79
SWIDTH 666 0
DWIDTH 12 0
BBX 12 23 0 -5
BITMAP
0000
0000
0000
0000
0700
1DC0
3060
3060
6030
6030
6030
6030
6030
6030
3060
3060
1DC0
0700
0000
0000
0000
0000
0000
ENDCHAR

STARTCHAR P
ENCODING 80
SWIDTH 666 0
DWIDTH 12 0
BBX 12 23 0 -5
BITMAP
0000
0000
0000
0000
7F80
30C0
3060
3060
3060
3060
30C0
3F80
3000
3000
3000
3000
3000
7C00
0000
0000
0000
0000
0000
ENDCHAR

STARTCHAR Q
ENCODING 81
SWIDTH 666 0
DWIDTH 12 0
BBX 12 23 0 -5
BITMAP
0000
0000
0000
0000
0700
1DC0
3060
3060
6030
6030
6030
6030
6030
6030
3060
3360
1BC0
0F80
0180
00C0
0060
0000
0000
ENDCHAR

STARTCHAR R
ENCODING 82
SWIDTH 666 0
DWIDTH 12 0
BBX 12 23 0 -5
BITMAP
0000
0000
0000
0000
7F80
30C0
3060
3060
3060
30C0
3F80
3300
3180
3180
30C0
30C0
3060
7870
0000
0000
0000
0000
0000
ENDCHAR

STARTCHAR S
ENCODING 83
SWIDTH 666 0
DWIDTH 12 0
BBX 12 23 0 -5
BITMAP
0000
0000
0000
0000
1F40
31C0
60C0
6040
7000
3800
1E00
0780
01C0
00E0
4060
6060
70C0
5F80
0000
0000
0000
0000
0000
ENDCHAR

STARTCHAR T
ENCODING 84
SWIDTH 666 0
DWIDTH 12 0
BBX 12 23 0 -5
BITMAP
0000
0000
0000
0000
7FE0
6660
4620
4620
0600
0600
0600
0600
0600
0600
0600
0600
0600
1F80
0000
0000
0000
0000
0000
ENDCHAR

STARTCHAR U
ENCODING 85
SWIDTH 666 0
DWIDTH 12 0
BBX 12 23 0 -5
BITMAP
0000
0000
0000
0000
78F0
3060
3060
3060
3060
3060
3060
3060
3060
3060
3060
3060
18C0
0F80
0000
0000
0000
0000
0000
ENDCHAR

STARTCHAR V
ENCODING 86
SWIDTH 666 0
DWIDTH 12 0
BBX 12 23 0 -5
BITMAP
0000
0000
0000
0000
F0F0
6060
6040
3040
30C0
3080
1880
1980
1900
0D00
0F00
0600
0600
0600
0000
0000
0000
0000
0000
ENDCHAR

STARTCHAR W
ENCODING 87
SWIDTH 666 0
DWIDTH 12 0
BBX 12 23 0 -5
BITMAP
0000
0000
0000
0000
E070
4020
4020
6660
6660
6660
2F40
2B40
3BC0
39C0
39C0
1980
1080
1080
0000
0000
0000
0000
0000
ENDCHAR

STARTCHAR X
ENCODING 88
SWIDTH 666 0
DWIDTH 12 0
BBX 12 23 0 -5
BITMAP
0000
0000
0000
0000
78F0
3060
18C0
18C0
0D80
0D80
0700
0700
0D80
0D80
18C0
18C0
3060
78F0
0000
0000
0000
0000
0000
ENDCHAR

STARTCHAR Y
ENCODING 89
SWIDTH 666 0
DWIDTH 12 0
BBX 12 23 0 -5
BITMAP
0000
0000
0000
0000
F0F0
6060
30C0
30C0
1980
1980
0F00
0F00
0600
0600
0600
0600
0600
1F80
0000
0000
0000
0000
0000
ENDCHAR

STARTCHAR Z
ENCODING 90
SWIDTH 666 0
DWIDTH 12 0
BBX 12 23 0 -5
BITMAP
0000
0000
0000
0000
7FE0
6060
4060
40C0
0180
0300
0600
0C00
1800
3000
6020
6020
6060
7FE0
0000
0000
0000
0000
0000
ENDCHAR

STARTCHAR OpenBracket
ENCODING 91
SWIDTH 666 0
DWIDTH 12 0
BBX 12 23 0 -5
BITMAP
0000
0000
07C0
0600
0600
0600
0600
0600
0600
0600
0600
0600
0600
0600
0600
0600
0600
0600
0600
07C0
0000
0000
0000
ENDCHAR

STARTCHAR BackSlash
ENCODING 92
SWIDTH 666 0
DWIDTH 12 0
BBX 12 23 0 -5
BITMAP
0000
0000
6000
6000
3000
3000
1800
1800
0C00
0C00
0600
0600
0300
0300
0180
0180
00C0
00C0
0060
0060
0000
0000
0000
ENDCHAR

STARTCHAR CloseBracket
ENCODING 93
SWIDTH 666 0
DWIDTH 12 0
BBX 12 23 0 -5
BITMAP
0000
0000
1F00
0300
0300
0300
0300
0300
0300
0300
0300
0300
0300
0300
0300
0300
0300
0300
0300
1F00
0000
0000
0000
ENDCHAR

STARTCHAR Circumflex
ENCODING 94
SWIDTH 666 0
DWIDTH 12 0
BBX 12 23 0 -5
BITMAP
0000
0000
0000
0000
0600
0F00
1980
2040
0000
0000
0000
0000
0000
0000
0000
0000
0000
0000
0000
0000
0000
0000
0000
ENDCHAR

STARTCHAR Underscore
ENCODING 95
SWIDTH 666 0
DWIDTH 12 0
BBX 12 23 0 -5
BITMAP
0000
0000
0000
0000
0000
0000
0000
0000
0000
0000
0000
0000
0000
0000
0000
0000
0000
0000
FFF0
0000
0000
0000
0000
ENDCHAR

STARTCHAR SingleOpenQuot
ENCODING 96
SWIDTH 666 0
DWIDTH 12 0
BBX 12 23 0 -5
BITMAP
0000
0000
0180
0300
0600
0E00
0F00
0F00
0600
0000
0000
0000
0000
0000
0000
0000
0000
0000
0000
0000
0000
0000
0000
ENDCHAR

STARTCHAR a
ENCODING 97
SWIDTH 666 0
DWIDTH 12 0
BBX 12 23 0 -5
BITMAP
0000
0000
0000
0000
0000
0000
0000
0000
0000
1F80
31C0
00C0
00C0
1FC0
30C0
60C0
73C0
3E60
0000
0000
0000
0000
0000
ENDCHAR

STARTCHAR b
ENCODING 98
SWIDTH 666 0
DWIDTH 12 0
BBX 12 23 0 -5
BITMAP
0000
0000
0000
0000
3000
7000
3000
3000
3000
3780
38E0
3060
3030
3030
3030
3060
38E0
3780
0000
0000
0000
0000
0000
ENDCHAR

STARTCHAR c
ENCODING 99
SWIDTH 666 0
DWIDTH 12 0
BBX 12 23 0 -5
BITMAP
0000
0000
0000
0000
0000
0000
0000
0000
0000
07E0
1C60
1820
3000
3000
3000
1820
1CE0
0780
0000
0000
0000
0000
0000
ENDCHAR

STARTCHAR d
ENCODING 100
SWIDTH 666 0
DWIDTH 12 0
BBX 12 23 0 -5
BITMAP
0000
0000
0000
0000
0060
00E0
0060
0060
0060
0F60
38E0
3060
6060
6060
6060
3060
38E0
0F30
0000
0000
0000
0000
0000
ENDCHAR

STARTCHAR e
ENCODING 101
SWIDTH 666 0
DWIDTH 12 0
BBX 12 23 0 -5
BITMAP
0000
0000
0000
0000
0000
0000
0000
0000
0000
0F00
39C0
30C0
6060
7FE0
6000
3020
38E0
0F80
0000
0000
0000
0000
0000
ENDCHAR

STARTCHAR f
ENCODING 102
SWIDTH 666 0
DWIDTH 12 0
BBX 12 23 0 -5
BITMAP
0000
0000
0000
0000
07C0
0C60
0C00
0C00
0C00
7FC0
0C00
0C00
0C00
0C00
0C00
0C00
0C00
7FC0
0000
0000
0000
0000
0000
ENDCHAR

STARTCHAR g
ENCODING 103
SWIDTH 666 0
DWIDTH 12 0
BBX 12 23 0 -5
BITMAP
0000
0000
0000
0000
0000
0000
0000
0000
0000
1F70
31C0
60C0
60C0
3180
1F00
3000
1FC0
3060
6060
6060
30C0
1F80
0000
ENDCHAR

STARTCHAR h
ENCODING 104
SWIDTH 666 0
DWIDTH 12 0
BBX 12 23 0 -5
BITMAP
0000
0000
0000
0000
3000
7000
3000
3000
3000
3780
39C0
30C0
30C0
30C0
30C0
30C0
30C0
79E0
0000
0000
0000
0000
0000
ENDCHAR

STARTCHAR i
ENCODING 105
SWIDTH 666 0
DWIDTH 12 0
BBX 12 23 0 -5
BITMAP
0000
0000
0000
0000
0300
0780
0300
0000
0000
0300
1F00
0300
0300
0300
0300
0300
0300
1FE0
0000
0000
0000
0000
0000
ENDCHAR

STARTCHAR j
ENCODING 106
SWIDTH 666 0
DWIDTH 12 0
BBX 12 23 0 -5
BITMAP
0000
0000
0000
0000
0300
0780
0300
0000
0000
0300
1F00
0300
0300
0300
0300
0300
0300
0300
0300
C300
E600
3C00
0000
ENDCHAR

STARTCHAR k
ENCODING 107
SWIDTH 666 0
DWIDTH 12 0
BBX 12 23 0 -5
BITMAP
0000
0000
0000
0000
3000
7000
3000
3000
3000
33E0
3180
3300
3600
3E00
3300
3180
30C0
78F0
0000
0000
0000
0000
0000
ENDCHAR

STARTCHAR l
ENCODING 108
SWIDTH 666 0
DWIDTH 12 0
BBX 12 23 0 -5
BITMAP
0000
0000
0000
0000
1E00
0600
0600
0600
0600
0600
0600
0600
0600
0600
0600
0600
0600
3FC0
0000
0000
0000
0000
0000
ENDCHAR

STARTCHAR m
ENCODING 109
SWIDTH 666 0
DWIDTH 12 0
BBX 12 23 0 -5
BITMAP
0000
0000
0000
0000
0000
0000
0000
0000
0000
5DC0
F760
6660
6660
6660
6660
6660
6660
EEF0
0000
0000
0000
0000
0000
ENDCHAR

STARTCHAR n
ENCODING 110
SWIDTH 666 0
DWIDTH 12 0
BBX 12 23 0 -5
BITMAP
0000
0000
0000
0000
0000
0000
0000
0000
0000
3780
79C0
30C0
30C0
30C0
30C0
30C0
30C0
79E0
0000
0000
0000
0000
0000
ENDCHAR

STARTCHAR o
ENCODING 111
SWIDTH 666 0
DWIDTH 12 0
BBX 12 23 0 -5
BITMAP
0000
0000
0000
0000
0000
0000
0000
0000
0000
0F00
39C0
30C0
6060
6060
6060
30C0
39C0
0F00
0000
0000
0000
0000
0000
ENDCHAR

STARTCHAR p
ENCODING 112
SWIDTH 666 0
DWIDTH 12 0
BBX 12 23 0 -5
BITMAP
0000
0000
0000
0000
0000
0000
0000
0000
0000
3780
78E0
3060
3030
3030
3030
3060
38E0
3780
3000
3000
3000
7C00
0000
ENDCHAR

STARTCHAR q
ENCODING 113
SWIDTH 666 0
DWIDTH 12 0
BBX 12 23 0 -5
BITMAP
0000
0000
0000
0000
0000
0000
0000
0000
0000
0F20
38E0
3060
6060
6060
6060
3060
38E0
0F60
0060
0060
0060
01F0
0000
ENDCHAR

STARTCHAR r
ENCODING 114
SWIDTH 666 0
DWIDTH 12 0
BBX 12 23 0 -5
BITMAP
0000
0000
0000
0000
0000
0000
0000
0000
0000
19C0
7AE0
1C40
1800
1800
1800
1800
1800
7F00
0000
0000
0000
0000
0000
ENDCHAR

STARTCHAR s
ENCODING 115
SWIDTH 666 0
DWIDTH 12 0
BBX 12 23 0 -5
BITMAP
0000
0000
0000
0000
0000
0000
0000
0000
0000
1FC0
38C0
3040
3C00
1F80
03C0
20C0
31C0
3F80
0000
0000
0000
0000
0000
ENDCHAR

STARTCHAR t
ENCODING 116
SWIDTH 666 0
DWIDTH 12 0
BBX 12 23 0 -5
BITMAP
0000
0000
0000
0000
0000
0000
0C00
0C00
0C00
7FC0
0C00
0C00
0C00
0C00
0C00
0C00
0C20
07C0
0000
0000
0000
0000
0000
ENDCHAR

STARTCHAR u
ENCODING 117
SWIDTH 666 0
DWIDTH 12 0
BBX 12 23 0 -5
BITMAP
0000
0000
0000
0000
0000
0000
0000
0000
0000
30C0
71C0
30C0
30C0
30C0
30C0
30C0
39C0
1E60
0000
0000
0000
0000
0000
ENDCHAR

STARTCHAR v
ENCODING 118
SWIDTH 666 0
DWIDTH 12 0
BBX 12 23 0 -5
BITMAP
0000
0000
0000
0000
0000
0000
0000
0000
0000
78F0
3060
1840
18C0
0C80
0D80
0700
0700
0200
0000
0000
0000
0000
0000
ENDCHAR

STARTCHAR w
ENCODING 119
SWIDTH 666 0
DWIDTH 12 0
BBX 12 23 0 -5
BITMAP
0000
0000
0000
0000
0000
0000
0000
0000
0000
78F0
3060
3260
3260
3760
1540
1DC0
18C0
18C0
0000
0000
0000
0000
0000
ENDCHAR

STARTCHAR x
ENCODING 120
SWIDTH 666 0
DWIDTH 12 0
BBX 12 23 0 -5
BITMAP
0000
0000
0000
0000
0000
0000
0000
0000
0000
79E0
30C0
1980
0F00
0600
0F00
1980
30C0
79E0
0000
0000
0000
0000
0000
ENDCHAR

STARTCHAR y
ENCODING 121
SWIDTH 666 0
DWIDTH 12 0
BBX 12 23 0 -5
BITMAP
0000
0000
0000
0000
0000
0000
0000
0000
0000
78F0
3060
1840
18C0
0C80
0D80
0700
0700
0200
0600
1400
3C00
1800
0000
ENDCHAR

STARTCHAR z
ENCODING 122
SWIDTH 666 0
DWIDTH 12 0
BBX 12 23 0 -5
BITMAP
0000
0000
0000
0000
0000
0000
0000
0000
0000
3FC0
30C0
2180
0300
0600
0C00
1840
30C0
3FC0
0000
0000
0000
0000
0000
ENDCHAR

STARTCHAR OpenBrace
ENCODING 123
SWIDTH 666 0
DWIDTH 12 0
BBX 12 23 0 -5
BITMAP
0000
0000
01C0
0300
0300
0300
0300
0300
0300
0600
1C00
0600
0300
0300
0300
0300
0300
0300
0300
01C0
0000
0000
0000
ENDCHAR

STARTCHAR LongVertMark
ENCODING 124
SWIDTH 666 0
DWIDTH 12 0
BBX 12 23 0 -5
BITMAP
0000
0000
0000
0600
0600
0600
0600
0600
0600
0600
0600
0600
0600
0600
0600
0600
0600
0600
0600
0000
0000
0000
0000
ENDCHAR

STARTCHAR CloseBrace
ENCODING 125
SWIDTH 666 0
DWIDTH 12 0
BBX 12 23 0 -5
BITMAP
0000
0000
1C00
0600
0600
0600
0600
0600
0600
0300
01C0
0300
0600
0600
0600
0600
0600
0600
0600
1C00
0000
0000
0000
ENDCHAR

STARTCHAR OneWavyLine
ENCODING 126
SWIDTH 666 0
DWIDTH 12 0
BBX 12 23 0 -5
BITMAP
0000
0000
0000
0000
0000
0000
0000
0000
0000
3820
7E20
47E0
41C0
0000
0000
0000
0000
0000
0000
0000
0000
0000
0000
ENDCHAR

STARTCHAR MediumShading
ENCODING 127
SWIDTH 666 0
DWIDTH 12 0
BBX 12 23 0 -5
BITMAP
AAA0
5550
AAA0
5550
AAA0
5550
AAA0
5550
AAA0
5550
AAA0
5550
AAA0
5550
AAA0
5550
AAA0
5550
AAA0
5550
AAA0
5550
AAA0
ENDCHAR

STARTCHAR Agrave
ENCODING 161
SWIDTH 666 0
DWIDTH 12 0
BBX 12 23 0 -5
BITMAP
3800
1C00
0600
0000
0600
0600
0F00
0B00
0B00
1980
1180
1180
30C0
3FC0
20C0
6060
6060
F0F0
0000
0000
0000
0000
0000
ENDCHAR

STARTCHAR Acircumflex
ENCODING 162
SWIDTH 666 0
DWIDTH 12 0
BBX 12 23 0 -5
BITMAP
0400
0E00
1B00
2080
0600
0600
0F00
0B00
0B00
1980
1180
1180
30C0
3FC0
20C0
6060
6060
F0F0
0000
0000
0000
0000
0000
ENDCHAR

STARTCHAR Egrave
ENCODING 163
SWIDTH 666 0
DWIDTH 12 0
BBX 12 23 0 -5
BITMAP
3800
1C00
0600
0000
7FE0
3060
3020
3020
3100
3100
3F00
3100
3100
3000
3020
3020
3060
7FE0
0000
0000
0000
0000
0000
ENDCHAR

STARTCHAR Ecircumflex
ENCODING 164
SWIDTH 666 0
DWIDTH 12 0
BBX 12 23 0 -5
BITMAP
0600
0F00
1980
0000
7FE0
3060
3020
3020
3100
3100
3F00
3100
3100
3000
3020
3020
3060
7FE0
0000
0000
0000
0000
0000
ENDCHAR

STARTCHAR Ediaeresis
ENCODING 165
SWIDTH 666 0
DWIDTH 12 0
BBX 12 23 0 -5
BITMAP
1100
3B80
1100
0000
7FE0
3060
3020
3020
3100
3100
3F00
3100
3100
3000
3020
3020
3060
7FE0
0000
0000
0000
0000
0000
ENDCHAR

STARTCHAR Icircumflex
ENCODING 166
SWIDTH 666 0
DWIDTH 12 0
BBX 12 23 0 -5
BITMAP
0600
0F00
1080
0000
3FC0
0600
0600
0600
0600
0600
0600
0600
0600
0600
0600
0600
0600
3FC0
0000
0000
0000
0000
0000
ENDCHAR

STARTCHAR Idiaeresis
ENCODING 167
SWIDTH 666 0
DWIDTH 12 0
BBX 12 23 0 -5
BITMAP
1100
3B80
1100
0000
3FC0
0600
0600
0600
0600
0600
0600
0600
0600
0600
0600
0600
0600
3FC0
0000
0000
0000
0000
0000
ENDCHAR

STARTCHAR acuteAccent
ENCODING 168
SWIDTH 666 0
DWIDTH 12 0
BBX 12 23 0 -5
BITMAP
0000
0000
0000
0000
0380
0700
0C00
0000
0000
0000
0000
0000
0000
0000
0000
0000
0000
0000
0000
0000
0000
0000
0000
ENDCHAR

STARTCHAR graveAccent
ENCODING 169
SWIDTH 666 0
DWIDTH 12 0
BBX 12 23 0 -5
BITMAP
0000
0000
0000
0000
1C00
0E00
0300
0000
0000
0000
0000
0000
0000
0000
0000
0000
0000
0000
0000
0000
0000
0000
0000
ENDCHAR

STARTCHAR circumflexAcct
ENCODING 170
SWIDTH 666 0
DWIDTH 12 0
BBX 12 23 0 -5
BITMAP
0000
0000
0000
0000
0200
0700
0D80
1040
0000
0000
0000
0000
0000
0000
0000
0000
0000
0000
0000
0000
0000
0000
0000
ENDCHAR

STARTCHAR diaeresisAccnt
ENCODING 171
SWIDTH 666 0
DWIDTH 12 0
BBX 12 23 0 -5
BITMAP
0000
0000
0000
0000
1100
3B80
1100
0000
0000
0000
0000
0000
0000
0000
0000
0000
0000
0000
0000
0000
0000
0000
0000
ENDCHAR

STARTCHAR tildeAccent
ENCODING 172
SWIDTH 666 0
DWIDTH 12 0
BBX 12 23 0 -5
BITMAP
0000
0000
0000
0000
3820
7E20
47E0
41C0
0000
0000
0000
0000
0000
0000
0000
0000
0000
0000
0000
0000
0000
0000
0000
ENDCHAR

STARTCHAR Ugrave
ENCODING 173
SWIDTH 666 0
DWIDTH 12 0
BBX 12 23 0 -5
BITMAP
1C00
0E00
0300
0000
78F0
3060
3060
3060
3060
3060
3060
3060
3060
3060
3060
3060
18C0
0F80
0000
0000
0000
0000
0000
ENDCHAR

STARTCHAR Ucircumflex
ENCODING 174
SWIDTH 666 0
DWIDTH 12 0
BBX 12 23 0 -5
BITMAP
0300
0780
0CC0
0000
78F0
3060
3060
3060
3060
3060
3060
3060
3060
3060
3060
3060
18C0
0F80
0000
0000
0000
0000
0000
ENDCHAR

STARTCHAR ItalianLire
ENCODING 175
SWIDTH 666 0
DWIDTH 12 0
BBX 12 23 0 -5
BITMAP
0000
0000
0000
0000
0F80
18C0
3040
3000
3000
7E00
3000
3000
7E00
3000
3000
3000
7C60
67C0
0000
0000
0000
0000
0000
ENDCHAR

STARTCHAR Overline
ENCODING 176
SWIDTH 666 0
DWIDTH 12 0
BBX 12 23 0 -5
BITMAP
FFF0
0000
0000
0000
0000
0000
0000
0000
0000
0000
0000
0000
0000
0000
0000
0000
0000
0000
0000
0000
0000
0000
0000
ENDCHAR

STARTCHAR Yacute
ENCODING 177
SWIDTH 666 0
DWIDTH 12 0
BBX 12 23 0 -5
BITMAP
01C0
0380
0600
0000
F0F0
6060
30C0
30C0
1980
1980
0F00
0F00
0600
0600
0600
0600
0600
1F80
0000
0000
0000
0000
0000
ENDCHAR

STARTCHAR yacute
ENCODING 178
SWIDTH 666 0
DWIDTH 12 0
BBX 12 23 0 -5
BITMAP
0000
0000
0000
0000
00E0
01C0
0300
0000
0000
78F0
3060
1840
18C0
0C80
0D80
0700
0700
0200
0600
1400
3C00
1800
0000
ENDCHAR

STARTCHAR DegreeSign
ENCODING 179
SWIDTH 666 0
DWIDTH 12 0
BBX 12 23 0 -5
BITMAP
0000
0000
0000
0000
0700
0D80
18C0
18C0
18C0
0D80
0700
0000
0000
0000
0000
0000
0000
0000
0000
0000
0000
0000
0000
ENDCHAR

STARTCHAR Ccedilla
ENCODING 180
SWIDTH 666 0
DWIDTH 12 0
BBX 12 23 0 -5
BITMAP
0000
0000
0000
0000
0FA0
18E0
3060
3020
6000
6000
6000
6000
6000
6000
3020
3060
1DC0
0700
0200
0700
0180
1980
0F00
ENDCHAR

STARTCHAR ccedilla
ENCODING 181
SWIDTH 666 0
DWIDTH 12 0
BBX 12 23 0 -5
BITMAP
0000
0000
0000
0000
0000
0000
0000
0000
0000
0FC0
38C0
3040
6000
6000
6000
3040
39C0
0F00
0200
0700
0180
1980
0F00
ENDCHAR

STARTCHAR Ntilde
ENCODING 182
SWIDTH 666 0
DWIDTH 12 0
BBX 12 23 0 -5
BITMAP
0000
1C40
2F40
2380
0000
70E0
3840
3840
3C40
2C40
2E40
2640
2740
2340
23C0
21C0
21C0
20C0
70C0
0000
0000
0000
0000
ENDCHAR

STARTCHAR ntilde
ENCODING 183
SWIDTH 666 0
DWIDTH 12 0
BBX 12 23 0 -5
BITMAP
0000
0000
0000
0000
1C40
2F40
2380
0000
0000
3780
79C0
30C0
30C0
30C0
30C0
30C0
30C0
79E0
0000
0000
0000
0000
0000
ENDCHAR

STARTCHAR InvExclamation
ENCODING 184
SWIDTH 666 0
DWIDTH 12 0
BBX 12 23 0 -5
BITMAP
0000
0000
0000
0600
0F00
0F00
0600
0000
0000
0600
0600
0600
0600
0F00
0F00
0F00
0F00
0F00
0600
0000
0000
0000
0000
ENDCHAR

STARTCHAR InvertQuestion
ENCODING 185
SWIDTH 666 0
DWIDTH 12 0
BBX 12 23 0 -5
BITMAP
0000
0000
0000
0000
0300
0780
0780
0300
0000
0000
0300
0300
0700
0E00
1C00
3840
38E0
38E0
1CC0
0F80
0000
0000
0000
ENDCHAR

STARTCHAR CurrencySymbol
ENCODING 186
SWIDTH 666 0
DWIDTH 12 0
BBX 12 23 0 -5
BITMAP
0000
0000
0000
0000
0000
3060
3FE0
38C0
1040
1040
1040
18C0
3FE0
3060
0000
0000
0000
0000
0000
0000
0000
0000
0000
ENDCHAR

STARTCHAR SterlingSign
ENCODING 187
SWIDTH 666 0
DWIDTH 12 0
BBX 12 23 0 -5
BITMAP
0000
0000
0000
0000
0F80
18C0
3040
3000
3000
3000
7E00
3000
3000
3000
3000
7000
7E60
67C0
0000
0000
0000
0000
0000
ENDCHAR

STARTCHAR Yensign
ENCODING 188
SWIDTH 666 0
DWIDTH 12 0
BBX 12 23 0 -5
BITMAP
0000
0000
0000
0000
F0F0
6060
30C0
30C0
1980
1980
0F00
7FE0
0600
0600
7FE0
0600
0600
1F80
0000
0000
0000
0000
0000
ENDCHAR

STARTCHAR SectionMark
ENCODING 189
SWIDTH 666 0
DWIDTH 12 0
BBX 12 23 0 -5
BITMAP
0000
0000
0000
1F00
3180
3180
3800
1C00
0E00
1700
3380
31C0
38C0
1CC0
0E80
0700
0380
01C0
18C0
18C0
0F80
0000
0000
ENDCHAR

STARTCHAR FlorinSign
ENCODING 190
SWIDTH 666 0
DWIDTH 12 0
BBX 12 23 0 -5
BITMAP
0000
0000
0000
0000
00E0
01B0
0110
0300
0300
0300
0FE0
0300
0300
0300
0300
0300
0300
0300
0300
4200
6600
3C00
0000
ENDCHAR

STARTCHAR CentSign
ENCODING 191
SWIDTH 666 0
DWIDTH 12 0
BBX 12 23 0 -5
BITMAP
0000
0000
0000
0000
0600
0600
0600
0FC0
38C0
3040
6000
6000
6000
3040
39C0
0F00
0600
0600
0600
0000
0000
0000
0000
ENDCHAR

STARTCHAR acircumflex
ENCODING 192
SWIDTH 666 0
DWIDTH 12 0
BBX 12 23 0 -5
BITMAP
0000
0000
0000
0000
0600
0F00
1980
0000
0000
1F80
31C0
00C0
00C0
1FC0
30C0
60C0
73C0
3E60
0000
0000
0000
0000
0000
ENDCHAR

STARTCHAR ecircumflex
ENCODING 193
SWIDTH 666 0
DWIDTH 12 0
BBX 12 23 0 -5
BITMAP
0000
0000
0000
0000
0600
0F00
1980
0000
0000
0F00
39C0
30C0
6060
7FE0
6000
3020
38E0
0F80
0000
0000
0000
0000
0000
ENDCHAR

STARTCHAR ocircumflex
ENCODING 194
SWIDTH 666 0
DWIDTH 12 0
BBX 12 23 0 -5
BITMAP
0000
0000
0000
0000
0600
0F00
1980
0000
0000
0F00
39C0
30C0
6060
6060
6060
30C0
39C0
0F00
0000
0000
0000
0000
0000
ENDCHAR

STARTCHAR ucircumflex
ENCODING 195
SWIDTH 666 0
DWIDTH 12 0
BBX 12 23 0 -5
BITMAP
0000
0000
0000
0000
0600
0F00
1980
0000
0000
30C0
71C0
30C0
30C0
30C0
30C0
30C0
39C0
1E60
0000
0000
0000
0000
0000
ENDCHAR

STARTCHAR aacute
ENCODING 196
SWIDTH 666 0
DWIDTH 12 0
BBX 12 23 0 -5
BITMAP
0000
0000
0000
0000
01C0
0380
0600
0000
0000
1F80
31C0
00C0
00C0
1FC0
30C0
60C0
73C0
3E60
0000
0000
0000
0000
0000
ENDCHAR

STARTCHAR eacute
ENCODING 197
SWIDTH 666 0
DWIDTH 12 0
BBX 12 23 0 -5
BITMAP
0000
0000
0000
0000
00E0
01C0
0300
0000
0000
0F00
39C0
30C0
6060
7FE0
6000
3020
38E0
0F80
0000
0000
0000
0000
0000
ENDCHAR

STARTCHAR oacute
ENCODING 198
SWIDTH 666 0
DWIDTH 12 0
BBX 12 23 0 -5
BITMAP
0000
0000
0000
0000
00E0
01C0
0300
0000
0000
0F00
39C0
30C0
6060
6060
6060
30C0
39C0
0F00
0000
0000
0000
0000
0000
ENDCHAR

STARTCHAR uacute
ENCODING 199
SWIDTH 666 0
DWIDTH 12 0
BBX 12 23 0 -5
BITMAP
0000
0000
0000
0000
01C0
0380
0600
0000
0000
30C0
71C0
30C0
30C0
30C0
30C0
30C0
39C0
1E60
0000
0000
0000
0000
0000
ENDCHAR

STARTCHAR agrave
ENCODING 200
SWIDTH 666 0
DWIDTH 12 0
BBX 12 23 0 -5
BITMAP
0000
0000
0000
0000
3800
1C00
0600
0000
0000
1F80
31C0
00C0
00C0
1FC0
30C0
60C0
73C0
3E60
0000
0000
0000
0000
0000
ENDCHAR

STARTCHAR egrave
ENCODING 201
SWIDTH 666 0
DWIDTH 12 0
BBX 12 23 0 -5
BITMAP
0000
0000
0000
0000
1C00
0E00
0300
0000
0000
0F00
39C0
30C0
6060
7FE0
6000
3020
38E0
0F80
0000
0000
0000
0000
0000
ENDCHAR

STARTCHAR ograve
ENCODING 202
SWIDTH 666 0
DWIDTH 12 0
BBX 12 23 0 -5
BITMAP
0000
0000
0000
0000
1C00
0E00
0300
0000
0000
0F00
39C0
30C0
6060
6060
6060
30C0
39C0
0F00
0000
0000
0000
0000
0000
ENDCHAR

STARTCHAR ugrave
ENCODING 203
SWIDTH 666 0
DWIDTH 12 0
BBX 12 23 0 -5
BITMAP
0000
0000
0000
0000
3800
1C00
0600
0000
0000
30C0
71C0
30C0
30C0
30C0
30C0
30C0
39C0
1E60
0000
0000
0000
0000
0000
ENDCHAR

STARTCHAR adiaeresis
ENCODING 204
SWIDTH 666 0
DWIDTH 12 0
BBX 12 23 0 -5
BITMAP
0000
0000
0000
0000
0880
1DC0
0880
0000
0000
1F80
31C0
00C0
00C0
1FC0
30C0
60C0
73C0
3E60
0000
0000
0000
0000
0000
ENDCHAR

STARTCHAR ediaeresis
ENCODING 205
SWIDTH 666 0
DWIDTH 12 0
BBX 12 23 0 -5
BITMAP
0000
0000
0000
0000
0880
1DC0
0880
0000
0000
0F00
39C0
30C0
6060
7FE0
6000
3020
38E0
0F80
0000
0000
0000
0000
0000
ENDCHAR

STARTCHAR odiaeresis
ENCODING 206
SWIDTH 666 0
DWIDTH 12 0
BBX 12 23 0 -5
BITMAP
0000
0000
0000
0000
1100
3B80
1100
0000
0000
0F00
39C0
30C0
6060
6060
6060
30C0
39C0
0F00
0000
0000
0000
0000
0000
ENDCHAR

STARTCHAR udiaeresis
ENCODING 207
SWIDTH 666 0
DWIDTH 12 0
BBX 12 23 0 -5
BITMAP
0000
0000
0000
0000
1100
3B80
1100
0000
0000
30C0
71C0
30C0
30C0
30C0
30C0
30C0
39C0
1E60
0000
0000
0000
0000
0000
ENDCHAR

STARTCHAR Abolle
ENCODING 208
SWIDTH 666 0
DWIDTH 12 0
BBX 12 23 0 -5
BITMAP
0E00
1100
1100
1100
0E00
0600
0F00
0B00
0B00
1980
1180
1180
30C0
3FC0
20C0
6060
6060
F0F0
0000
0000
0000
0000
0000
ENDCHAR

STARTCHAR icircumflex
ENCODING 209
SWIDTH 666 0
DWIDTH 12 0
BBX 12 23 0 -5
BITMAP
0000
0000
0000
0000
0600
0F00
1980
0000
0000
0600
3E00
0600
0600
0600
0600
0600
0600
3FC0
0000
0000
0000
0000
0000
ENDCHAR

STARTCHAR Ooblique
ENCODING 210
SWIDTH 666 0
DWIDTH 12 0
BBX 12 23 0 -5
BITMAP
0000
0000
0000
0020
0760
1DC0
30E0
30A0
61B0
6130
6330
6230
6630
6430
2C60
3860
1DC0
3700
2000
0000
0000
0000
0000
ENDCHAR

STARTCHAR AEdiphthong
ENCODING 211
SWIDTH 666 0
DWIDTH 12 0
BBX 12 23 0 -5
BITMAP
0000
0000
0000
0000
1FF0
0F30
0B10
1B00
1B20
1320
13E0
3320
3F20
2300
2310
6310
6330
F7F0
0000
0000
0000
0000
0000
ENDCHAR

STARTCHAR abolle
ENCODING 212
SWIDTH 666 0
DWIDTH 12 0
BBX 12 23 0 -5
BITMAP
0000
0000
0700
0880
0880
0880
0700
0000
0000
1F80
31C0
00C0
00C0
1FC0
30C0
60C0
73C0
3E60
0000
0000
0000
0000
0000
ENDCHAR

STARTCHAR iacute
ENCODING 213
SWIDTH 666 0
DWIDTH 12 0
BBX 12 23 0 -5
BITMAP
0000
0000
0000
0000
01C0
0380
0600
0000
0000
0600
3E00
0600
0600
0600
0600
0600
0600
3FC0
0000
0000
0000
0000
0000
ENDCHAR

STARTCHAR ooblique
ENCODING 214
SWIDTH 666 0
DWIDTH 12 0
BBX 12 23 0 -5
BITMAP
0000
0000
0000
0000
0000
0000
0000
0040
00C0
0F80
39C0
33C0
6260
6660
6460
3CC0
39C0
1F00
3000
2000
0000
0000
0000
ENDCHAR

STARTCHAR aedihthong
ENCODING 215
SWIDTH 666 0
DWIDTH 12 0
BBX 12 23 0 -5
BITMAP
0000
0000
0000
0000
0000
0000
0000
0000
0000
3DE0
6F30
0630
0630
7FF0
C600
C600
CF30
79E0
0000
0000
0000
0000
0000
ENDCHAR

STARTCHAR Adiaeresis
ENCODING 216
SWIDTH 666 0
DWIDTH 12 0
BBX 12 23 0 -5
BITMAP
1100
3B80
1100
0000
0600
0600
0F00
0B00
0B00
1980
1180
1180
30C0
3FC0
20C0
6060
6060
F0F0
0000
0000
0000
0000
0000
ENDCHAR

STARTCHAR igrave
ENCODING 217
SWIDTH 666 0
DWIDTH 12 0
BBX 12 23 0 -5
BITMAP
0000
0000
0000
0000
3800
1C00
0600
0000
0000
0600
3E00
0600
0600
0600
0600
0600
0600
3FC0
0000
0000
0000
0000
0000
ENDCHAR

STARTCHAR Odiaeresis
ENCODING 218
SWIDTH 666 0
DWIDTH 12 0
BBX 12 23 0 -5
BITMAP
0880
1DC0
0880
0000
0700
1DC0
3060
3060
6030
6030
6030
6030
6030
6030
3060
3060
1DC0
0700
0000
0000
0000
0000
0000
ENDCHAR

STARTCHAR Udiaeresis
ENCODING 219
SWIDTH 666 0
DWIDTH 12 0
BBX 12 23 0 -5
BITMAP
0880
1DC0
0880
0000
78F0
3060
3060
3060
3060
3060
3060
3060
3060
3060
3060
3060
18C0
0F80
0000
0000
0000
0000
0000
ENDCHAR

STARTCHAR Eacute
ENCODING 220
SWIDTH 666 0
DWIDTH 12 0
BBX 12 23 0 -5
BITMAP
01C0
0380
0600
0000
7FE0
3060
3020
3020
3100
3100
3F00
3100
3100
3000
3020
3020
3060
7FE0
0000
0000
0000
0000
0000
ENDCHAR

STARTCHAR idiaeresis
ENCODING 221
SWIDTH 666 0
DWIDTH 12 0
BBX 12 23 0 -5
BITMAP
0000
0000
0000
0000
1100
3B80
1100
0000
0000
0600
3E00
0600
0600
0600
0600
0600
0600
3FC0
0000
0000
0000
0000
0000
ENDCHAR

STARTCHAR EsZetLigature
ENCODING 222
SWIDTH 666 0
DWIDTH 12 0
BBX 12 23 0 -5
BITMAP
0000
0000
0000
0000
0F80
18C0
3060
3060
3060
30C0
33C0
3060
3030
3030
3030
3430
3660
33C0
3000
7000
0000
0000
0000
ENDCHAR

STARTCHAR Ocircumflex
ENCODING 223
SWIDTH 666 0
DWIDTH 12 0
BBX 12 23 0 -5
BITMAP
0600
0F00
1980
2040
0700
1DC0
3060
3060
6030
6030
6030
6030
6030
6030
3060
3060
1DC0
0700
0000
0000
0000
0000
0000
ENDCHAR

STARTCHAR Aacute
ENCODING 224
SWIDTH 666 0
DWIDTH 12 0
BBX 12 23 0 -5
BITMAP
01C0
0380
0600
0000
0600
0600
0F00
0B00
0B00
1980
1180
1180
30C0
3FC0
20C0
6060
6060
F0F0
0000
0000
0000
0000
0000
ENDCHAR

STARTCHAR Atilde
ENCODING 225
SWIDTH 666 0
DWIDTH 12 0
BBX 12 23 0 -5
BITMAP
1C40
2F40
2380
0000
0600
0600
0F00
0B00
0B00
1980
1180
1180
30C0
3FC0
20C0
6060
6060
F0F0
0000
0000
0000
0000
0000
ENDCHAR

STARTCHAR atilde
ENCODING 226
SWIDTH 666 0
DWIDTH 12 0
BBX 12 23 0 -5
BITMAP
0000
0000
0000
0000
1C40
2F40
2380
0000
0000
1F80
31C0
00C0
00C0
1FC0
30C0
60C0
73C0
3E60
0000
0000
0000
0000
0000
ENDCHAR

STARTCHAR Eth
ENCODING 227
SWIDTH 666 0
DWIDTH 12 0
BBX 12 23 0 -5
BITMAP
0000
0000
0000
0000
7F00
31C0
3060
3060
3030
3030
7E30
3030
3030
3030
3060
3060
31C0
7F00
0000
0000
0000
0000
0000
ENDCHAR

STARTCHAR ethIcelandic
ENCODING 228
SWIDTH 666 0
DWIDTH 12 0
BBX 12 23 0 -5
BITMAP
0000
0000
0000
0000
3B00
0E00
1E00
3300
0180
0FC0
38C0
30E0
6060
6060
6060
30C0
39C0
0F00
0000
0000
0000
0000
0000
ENDCHAR

STARTCHAR Iacute
ENCODING 229
SWIDTH 666 0
DWIDTH 12 0
BBX 12 23 0 -5
BITMAP
01C0
0380
0600
0000
3FC0
0600
0600
0600
0600
0600
0600
0600
0600
0600
0600
0600
0600
3FC0
0000
0000
0000
0000
0000
ENDCHAR

STARTCHAR Igrave
ENCODING 230
SWIDTH 666 0
DWIDTH 12 0
BBX 12 23 0 -5
BITMAP
3800
1C00
0600
0000
3FC0
0600
0600
0600
0600
0600
0600
0600
0600
0600
0600
0600
0600
3FC0
0000
0000
0000
0000
0000
ENDCHAR

STARTCHAR Oacute
ENCODING 231
SWIDTH 666 0
DWIDTH 12 0
BBX 12 23 0 -5
BITMAP
00E0
01C0
0300
0000
0700
1DC0
3060
3060
6030
6030
6030
6030
6030
6030
3060
3060
1DC0
0700
0000
0000
0000
0000
0000
ENDCHAR

STARTCHAR Ograve
ENCODING 232
SWIDTH 666 0
DWIDTH 12 0
BBX 12 23 0 -5
BITMAP
1C00
0E00
0300
0000
0700
1DC0
3060
3060
6030
6030
6030
6030
6030
6030
3060
3060
1DC0
0700
0000
0000
0000
0000
0000
ENDCHAR

STARTCHAR Otilde
ENCODING 233
SWIDTH 666 0
DWIDTH 12 0
BBX 12 23 0 -5
BITMAP
1C40
2F40
2380
0000
0700
1DC0
3060
3060
6030
6030
6030
6030
6030
6030
3060
3060
1DC0
0700
0000
0000
0000
0000
0000
ENDCHAR

STARTCHAR otilde
ENCODING 234
SWIDTH 666 0
DWIDTH 12 0
BBX 12 23 0 -5
BITMAP
0000
0000
0000
0000
1C40
2F40
2380
0000
0000
0F00
39C0
30C0
6060
6060
6060
30C0
39C0
0F00
0000
0000
0000
0000
0000
ENDCHAR

STARTCHAR Shacek
ENCODING 235
SWIDTH 666 0
DWIDTH 12 0
BBX 12 23 0 -5
BITMAP
1980
0F00
0600
0000
1F40
31C0
60C0
6040
6000
3800
1E00
0780
01C0
0060
4060
6060
70C0
5F80
0000
0000
0000
0000
0000
ENDCHAR

STARTCHAR shacek
ENCODING 236
SWIDTH 666 0
DWIDTH 12 0
BBX 12 23 0 -5
BITMAP
0000
0000
0000
0000
0CC0
0780
0300
0000
0000
0F80
38E0
3060
1C00
0F80
01C0
3060
38E0
0F80
0000
0000
0000
0000
0000
ENDCHAR

STARTCHAR Uacute
ENCODING 237
SWIDTH 666 0
DWIDTH 12 0
BBX 12 23 0 -5
BITMAP
00E0
01C0
0300
0000
78F0
3060
3060
3060
3060
3060
3060
3060
3060
3060
3060
3060
18C0
0F80
0000
0000
0000
0000
0000
ENDCHAR

STARTCHAR Ydiaeresis
ENCODING 238
SWIDTH 666 0
DWIDTH 12 0
BBX 12 23 0 -5
BITMAP
1100
3B80
1100
0000
F0F0
6060
30C0
30C0
1980
1980
0F00
0F00
0600
0600
0600
0600
0600
1F80
0000
0000
0000
0000
0000
ENDCHAR

STARTCHAR ydiaeresis
ENCODING 239
SWIDTH 666 0
DWIDTH 12 0
BBX 12 23 0 -5
BITMAP
0000
0000
0000
0000
0880
1DC0
0880
0000
0000
78F0
3060
1840
18C0
0C80
0D80
0700
0700
0200
0600
1400
3C00
1800
0000
ENDCHAR

STARTCHAR Thorn
ENCODING 240
SWIDTH 666 0
DWIDTH 12 0
BBX 12 23 0 -5
BITMAP
0000
0000
0000
0000
7C00
3000
3000
3F80
30C0
3060
3060
3060
30C0
3F80
3000
3000
3000
7C00
0000
0000
0000
0000
0000
ENDCHAR

STARTCHAR thorn
ENCODING 241
SWIDTH 666 0
DWIDTH 12 0
BBX 12 23 0 -5
BITMAP
0000
0000
0000
0000
3000
7000
3000
3000
3000
3780
38E0
3060
3030
3030
3030
3060
38E0
3780
3000
3000
3000
7C00
0000
ENDCHAR

STARTCHAR middleDot
ENCODING 242
SWIDTH 666 0
DWIDTH 12 0
BBX 12 23 0 -5
BITMAP
0000
0000
0000
0000
0000
0000
0000
0000
0000
0000
0600
0F00
0600
0000
0000
0000
0000
0000
0000
0000
0000
0000
0000
ENDCHAR

STARTCHAR muGreek
ENCODING 243
SWIDTH 666 0
DWIDTH 12 0
BBX 12 23 0 -5
BITMAP
0000
0000
0000
0000
0000
0000
0000
0000
0000
0C30
0C30
0C30
1860
1860
1860
38C0
3FF0
3770
3000
6000
6000
6000
0000
ENDCHAR

STARTCHAR ParagraphSign
ENCODING 244
SWIDTH 666 0
DWIDTH 12 0
BBX 12 23 0 -5
BITMAP
0000
0000
0000
0000
1FF0
3E60
7E60
7E60
7E60
7E60
3E60
1E60
0660
0660
0660
0660
0660
0660
0660
0000
0000
0000
0000
ENDCHAR

STARTCHAR FracThreeFour
ENCODING 245
SWIDTH 666 0
DWIDTH 12 0
BBX 12 23 0 -5
BITMAP
0000
3C00
6600
4600
0600
1C00
0610
4630
6660
3CC0
0180
0300
0600
0C80
1980
3100
6340
4260
0660
07F0
0060
0060
0000
ENDCHAR

STARTCHAR MinusSign
ENCODING 246
SWIDTH 666 0
DWIDTH 12 0
BBX 12 23 0 -5
BITMAP
0000
0000
0000
0000
0000
0000
0000
0000
0000
0000
7FE0
7FE0
0000
0000
0000
0000
0000
0000
0000
0000
0000
0000
0000
ENDCHAR

STARTCHAR FracOneFourth
ENCODING 247
SWIDTH 666 0
DWIDTH 12 0
BBX 12 23 0 -5
BITMAP
0000
0000
0C00
1C00
2C00
0C00
0C10
0C30
0C60
0CC0
0180
0300
0600
0C80
1980
3100
6340
4260
0660
07F0
0060
0060
0000
ENDCHAR

STARTCHAR FracOneHalf
ENCODING 248
SWIDTH 666 0
DWIDTH 12 0
BBX 12 23 0 -5
BITMAP
0000
0000
0C00
1C00
2C00
0C00
0C10
0C30
0C60
0CC0
0180
0300
0600
0DE0
1B30
3230
6030
4060
00C0
0180
0310
03F0
0000
ENDCHAR

STARTCHAR FemaleOrdinal
ENCODING 249
SWIDTH 666 0
DWIDTH 12 0
BBX 12 23 0 -5
BITMAP
0000
0000
0000
0F80
18C0
00C0
07C0
18C0
30C0
31C0
1E60
0000
3FE0
0000
0000
0000
0000
0000
0000
0000
0000
0000
0000
ENDCHAR

STARTCHAR MaleOrdinal
ENCODING 250
SWIDTH 666 0
DWIDTH 12 0
BBX 12 23 0 -5
BITMAP
0000
0000
0000
0F00
1980
30C0
30C0
30C0
30C0
1980
0F00
0000
3FC0
0000
0000
0000
0000
0000
0000
0000
0000
0000
0000
ENDCHAR

STARTCHAR DblOpenAnglQut
ENCODING 251
SWIDTH 666 0
DWIDTH 12 0
BBX 12 23 0 -5
BITMAP
0000
0000
0000
0000
0000
0000
0220
0660
0CC0
1980
3300
3300
1980
0CC0
0660
0220
0000
0000
0000
0000
0000
0000
0000
ENDCHAR

STARTCHAR MedSolidSquare
ENCODING 252
SWIDTH 666 0
DWIDTH 12 0
BBX 12 23 0 -5
BITMAP
0000
0000
0000
0000
0000
0000
7FE0
7FE0
7FE0
7FE0
7FE0
7FE0
7FE0
7FE0
7FE0
7FE0
0000
0000
0000
0000
0000
0000
0000
ENDCHAR

STARTCHAR DblClosAnglQut
ENCODING 253
SWIDTH 666 0
DWIDTH 12 0
BBX 12 23 0 -5
BITMAP
0000
0000
0000
0000
0000
0000
2200
3300
1980
0CC0
0660
0660
0CC0
1980
3300
2200
0000
0000
0000
0000
0000
0000
0000
ENDCHAR

STARTCHAR PlusOverMinus
ENCODING 254
SWIDTH 666 0
DWIDTH 12 0
BBX 12 23 0 -5
BITMAP
0000
0000
0000
0000
0600
0600
0600
7FE0
7FE0
0600
0600
0600
0000
7FE0
7FE0
0000
0000
0000
0000
0000
0000
0000
0000
ENDCHAR
ENDFONT
